# Blender v2.78 (sub 0) OBJ File: ''
# www.blender.org
mtllib example.mtl
o Plane
v -3.000000 1.000000 2.000000
v -1.000000 1.000000 2.000000
v -3.000000 1.000000 0.000000
v -1.000000 1.000000 0.000000
vn 0.0000 1.0000 0.0000
usemtl None
s off
f 1//1 2//1 4//1 3//1
o Cube
v 1.000000 -1.000000 -1.000000
v 1.000000 -1.000000 1.000000
v -1.000000 -1.000000 1.000000
v -1.000000 -1.000000 -1.000000
v 1.000000 1.000000 -1.000000
v 1.000000 1.000000 1.000000
v -1.000000 1.000000 1.000000
v -1.000000 1.000000 -1.000000
v -0.000000 2.000000 -0.000000
v -0.000000 1.000000 -0.000000
vn 0.0000 -1.0000 0.0000
vn 0.0000 1.0000 0.0000
vn -0.0000 -0.0000 1.0000
vn -0.5773 -0.5773 0.5773
vn -0.5773 0.5773 0.5773
vn -0.5773 0.5773 -0.5773
vn -0.5773 -0.5773 -0.5773
vn 0.5773 0.5773 -0.5773
vn 0.5773 -0.5773 -0.5773
vn 1.0000 0.0000 0.0000
usemtl Base
s off
f 5//2 6//2 7//2 8//2
f 9//3 12//3 11//3 10//3
f 6//4 10//4 11//4 7//4
s 5
f 7//5 11//6 12//7 8//8
f 9//9 5//10 8//8 12//7
usemtl Red
s off
f 5//11 9//11 10//11 6//11
l 11 13
